<?xml version="1.0" encoding="UTF-8"?>
<svg width="201px" height="162px" viewBox="0 0 201 162" version="1.1" xmlns="http://www.w3.org/2000/svg" xmlns:xlink="http://www.w3.org/1999/xlink">
    <title>icon-wechat</title>
    <g id="页面-1" stroke="none" stroke-width="1" fill="none" fill-rule="evenodd">
        <g id="icon-wechat" transform="translate(0.500000, 0.453125)" fill="#838DA9" fill-rule="nonzero">
            <path d="M139.770064,50.5860029 C141.087175,50.5860029 142.404286,50.6306507 143.699074,50.6976225 C138.252037,21.9667374 108.360308,0 72.2848532,0 C32.3696841,0 0,26.9226476 0,60.1406407 C0,78.2453399 9.73322916,94.5641255 24.9804666,105.592142 C26.2082822,106.462775 27.0119433,107.891506 27.0119433,109.521152 C27.0119433,110.056926 26.9003237,110.548052 26.7663802,111.061502 C25.5385646,115.593258 23.5963835,122.848532 23.5070878,123.183391 C23.3508204,123.763813 23.1275812,124.344235 23.1275812,124.946981 C23.1275812,126.264092 24.1991294,127.357964 25.5385646,127.357964 C26.0520147,127.357964 26.4761692,127.157049 26.9226476,126.911486 L42.750307,117.781002 C43.9334747,117.088961 45.2059382,116.664806 46.5900212,116.664806 C47.3043867,116.664806 48.0187521,116.776426 48.7107936,116.977341 C56.1000112,119.098114 64.0696506,120.281281 72.3071771,120.281281 C73.6466123,120.281281 74.9637236,120.258957 76.2808349,120.191986 C74.6958366,115.503962 73.8475276,110.570376 73.8475276,105.458198 C73.8475276,75.142315 103.35975,50.5860029 139.770064,50.5860029 L139.770064,50.5860029 Z M96.3946869,31.275812 C101.70778,31.275812 106.03862,35.5843286 106.03862,40.8974216 C106.03862,46.2105146 101.730104,50.5190311 96.3946869,50.5190311 C91.0815939,50.5190311 86.7507534,46.2105146 86.7507534,40.8974216 C86.7507534,35.5843286 91.0815939,31.275812 96.3946869,31.275812 Z M48.1973435,50.5190311 C42.8842505,50.5190311 38.55341,46.2105146 38.55341,40.8974216 C38.55341,35.5843286 42.8619266,31.275812 48.1973435,31.275812 C53.5327604,31.275812 57.8412769,35.5843286 57.8412769,40.8974216 C57.8412769,46.2105146 53.5104364,50.5190311 48.1973435,50.5190311 Z" id="形状"></path>
            <path d="M179.194106,143.297243 C191.896417,134.099788 200,120.526845 200,105.413551 C200,77.7318897 173.032705,55.29635 139.74774,55.29635 C106.485099,55.29635 79.4954794,77.7318897 79.4954794,105.413551 C79.4954794,133.095212 106.462775,155.530751 139.74774,155.530751 C146.623507,155.530751 153.276035,154.548499 159.415113,152.784909 C159.995535,152.606318 160.575957,152.517022 161.178703,152.517022 C162.339547,152.517022 163.388771,152.874205 164.371024,153.432303 L177.56446,161.022436 C177.943967,161.245675 178.30115,161.401942 178.725304,161.401942 C179.261078,161.401942 179.774528,161.201027 180.154035,160.82152 C180.533542,160.442014 180.734457,159.928563 180.734457,159.392789 C180.734457,158.901663 180.533542,158.410537 180.421922,157.919411 C180.35495,157.651524 178.725304,151.601741 177.698404,147.806675 C177.586784,147.38252 177.497489,146.958366 177.497489,146.534211 C177.519812,145.2171 178.18953,144.033932 179.194106,143.297243 Z M119.700859,97.4215872 C115.258399,97.4215872 111.664248,93.8274361 111.664248,89.4072999 C111.664248,84.9871637 115.258399,81.3930126 119.700859,81.3930126 C124.14332,81.3930126 127.737471,84.9871637 127.737471,89.4072999 C127.737471,93.8274361 124.120996,97.4215872 119.700859,97.4215872 Z M159.861592,97.4215872 C155.419132,97.4215872 151.82498,93.8274361 151.82498,89.4072999 C151.82498,84.9871637 155.419132,81.3930126 159.861592,81.3930126 C164.304052,81.3930126 167.898203,84.9871637 167.898203,89.4072999 C167.875879,93.8274361 164.281728,97.4215872 159.861592,97.4215872 Z" id="形状"></path>
        </g>
    </g>
</svg>